<svg width="640" height="512" xmlns="http://www.w3.org/2000/svg" role="img" class="svg-inline--fa fa-battery-full fa-w-20" data-icon="battery-full" data-prefix="fas" focusable="false" aria-hidden="true">

 <g>
  <title>Layer 1</title>
  <path id="svg_1" d="m544,160l0,64l32,0l0,64l-32,0l0,64l-480,0l0,-192l480,0m16,-64l-512,0c-26.51,0 -48,21.49 -48,48l0,224c0,26.51 21.49,48 48,48l512,0c26.51,0 48,-21.49 48,-48l0,-16l8,0c13.255,0 24,-10.745 24,-24l0,-144c0,-13.255 -10.745,-24 -24,-24l-8,0l0,-16c0,-26.51 -21.49,-48 -48,-48zm-48,96l-416,0l0,128l416,0l0,-128z" fill="currentColor"/>
  <path stroke="null" fill="#ffffff" d="m360.84554,224.18751l-43.99707,0l16.24155,-46.39336c1.52503,-5.43281 -2.85943,-10.79414 -8.84517,-10.79414l-54.90102,0c-4.57509,0 -8.46391,3.18106 -9.07392,7.43438l-12.20023,85.78125c-0.72439,5.14688 3.54569,9.72188 9.07392,9.72188l45.25522,0l-17.57595,69.51855c-1.37253,5.43281 3.05006,10.54394 8.88329,10.54394c3.20256,0 6.25262,-1.57266 7.93015,-4.28906l67.10125,-108.65625c3.54569,-5.68301 -0.83877,-12.86719 -7.89202,-12.86719z" id="svg_3"/>
 </g>
</svg>